<svg xmlns="http://www.w3.org/2000/svg" x="0px" y="0px" viewBox="6.508600730895996 7.121200103759765 34.982796630859376 33.75759979248047" enable-background="new 0 0 48 48">
<g>
	
		<path fill="#FFFFFF" stroke="#FFC107FF" stroke-width="0.96" stroke-linecap="round" stroke-linejoin="round" stroke-miterlimit="10" d="   M38.6591,40.3988H9.3409c-1.2991,0-2.3523-1.0531-2.3523-2.3523v-2.9893c0-1.2991,1.0531-2.3523,2.3523-2.3523h29.3182   c1.2991,0,2.3523,1.0531,2.3523,2.3523v2.9893C41.0114,39.3456,39.9582,40.3988,38.6591,40.3988z"/>
	
		<line fill="none" stroke="#FFC107FF" stroke-width="0.96" stroke-linecap="round" stroke-linejoin="round" stroke-miterlimit="10" x1="13.4764" y1="32.7049" x2="10.3858" y2="40.3988"/>
	
		<line fill="none" stroke="#FFC107FF" stroke-width="0.96" stroke-linecap="round" stroke-linejoin="round" stroke-miterlimit="10" x1="19.5213" y1="32.7049" x2="16.4307" y2="40.3988"/>
	
		<line fill="none" stroke="#FFC107FF" stroke-width="0.96" stroke-linecap="round" stroke-linejoin="round" stroke-miterlimit="10" x1="25.5662" y1="32.7049" x2="22.4756" y2="40.3988"/>
	
		<line fill="none" stroke="#FFC107FF" stroke-width="0.96" stroke-linecap="round" stroke-linejoin="round" stroke-miterlimit="10" x1="31.6111" y1="32.7049" x2="28.5206" y2="40.3988"/>
	
		<line fill="none" stroke="#FFC107FF" stroke-width="0.96" stroke-linecap="round" stroke-linejoin="round" stroke-miterlimit="10" x1="37.6561" y1="32.7049" x2="34.5655" y2="40.3988"/>
</g>
<g>
	
		<path fill="#FFFFFF" stroke="#000000" stroke-width="0.96" stroke-linecap="round" stroke-linejoin="round" stroke-miterlimit="10" d="   M19.4004,19.2472l3.7739,3.9182c0.5159,0.5357,1.3779,0.5214,1.8758-0.0311l3.531-3.9182c0.7433-0.8249,0.158-2.1404-0.9524-2.1404   h-1.3676v-3.2608c0-0.9091-0.737-1.6461-1.6461-1.6461h-1.2776c-0.9091,0-1.6461,0.737-1.6461,1.6461v3.2608h-1.3675   C19.1931,17.0757,18.616,18.4328,19.4004,19.2472z"/>
</g>
<g>
	
		<line fill="none" stroke="#FFC107FF" stroke-width="0.96" stroke-linecap="round" stroke-linejoin="round" stroke-miterlimit="10" x1="23.976" y1="8.5025" x2="23.976" y2="7.6012"/>
	
		<line fill="none" stroke="#FFC107FF" stroke-width="0.96" stroke-linecap="round" stroke-linejoin="round" stroke-miterlimit="10" x1="23.976" y1="28.6012" x2="23.976" y2="27.7"/>
	
		<line fill="none" stroke="#FFC107FF" stroke-width="0.96" stroke-linecap="round" stroke-linejoin="round" stroke-miterlimit="10" x1="30.7634" y1="11.3139" x2="31.4006" y2="10.6766"/>
	
		<line fill="none" stroke="#FFC107FF" stroke-width="0.96" stroke-linecap="round" stroke-linejoin="round" stroke-miterlimit="10" x1="16.5514" y1="25.5259" x2="17.1887" y2="24.8886"/>
	
		<line fill="none" stroke="#FFC107FF" stroke-width="0.96" stroke-linecap="round" stroke-linejoin="round" stroke-miterlimit="10" x1="33.5748" y1="18.1012" x2="34.476" y2="18.1012"/>
	
		<line fill="none" stroke="#FFC107FF" stroke-width="0.96" stroke-linecap="round" stroke-linejoin="round" stroke-miterlimit="10" x1="13.476" y1="18.1012" x2="14.3772" y2="18.1012"/>
	
		<line fill="none" stroke="#FFC107FF" stroke-width="0.96" stroke-linecap="round" stroke-linejoin="round" stroke-miterlimit="10" x1="30.7634" y1="24.8886" x2="31.4006" y2="25.5259"/>
	
		<line fill="none" stroke="#FFC107FF" stroke-width="0.96" stroke-linecap="round" stroke-linejoin="round" stroke-miterlimit="10" x1="16.5514" y1="10.6766" x2="17.1887" y2="11.3139"/>
</g>
</svg>